<svg xmlns="http://www.w3.org/2000/svg" viewBox="0 0 120 100" width="120" height="100">
  <g id="kid-thumbs-up">
    <path fill="#FDD6B5" d="M74.6,52.5c0,8.7-6.3,16.5-16.7,18.8c-3.1,6.2-8.6,9.5-8.6,9.5s-11.6-1.8-17-8.5C23.2,70.5,19,61.8,19,52.5 c0-15.5,10.5-27.6,26.3-27.6S74.6,37.1,74.6,52.5z"/>
    <path fill="#734F39" d="M80.8,44.7c0,0-2.6-15-11.3-23.7C62,13.8,49.5,11.4,45.3,11.4S28.6,13.8,21,21c-8.7,8.7-11.3,23.7-11.3,23.7 s1.9-1.6,5.3-0.9c1,3.5,2.4,6.6,4.1,9.4c0.6-3.2,2.2-6.8,5.9-8.8c0,0,7.5,6.3,17.6,4.3c5.8,2.9,14.1-0.9,14.1-0.9 c3.6,2,5.2,5.6,5.8,8.8c1.7-2.8,3.1-5.9,4.1-9.4C78.9,43.1,80.8,44.7,80.8,44.7z"/>
    <ellipse fill="#F4A3A3" cx="33.5" cy="58.5" rx="5.3" ry="2.8"/>
    <ellipse fill="#F4A3A3" cx="60.1" cy="58.5" rx="5.3" ry="2.8"/>
    <path fill="#F28045" d="M33,80.8c0,0,5.8,4.8,16.3,4.8c10.5,0,16.3-4.8,16.3-4.8l4.9,9.8H28.1L33,80.8z"/>
    <path fill="#FFFFFF" d="M103.5,25.7c-3.3-1-7.8,0.6-9.4,5.1l-3,8.3c-3.8,1.1-8.1,3.7-10.7,8.6l4.5,7.9c2,3.6,5.7,6.6,11.6,8.2 l0.7,3.8c0.4,2.3,2.6,3.9,5,3.5l6.1-1.1c2.3-0.4,3.9-2.6,3.5-5l-0.6-3.4c3.2-1,5.6-3.8,5.9-7.2l0.3-3.4c0.3-3.4-2.1-6.4-5.4-7 l0-3.2c0-3.4-2.5-6.3-5.8-6.9l0.7-8C107.2,31.1,106.4,26.6,103.5,25.7z"/>

    <g fill="none" stroke="#000000" stroke-width="3" stroke-linecap="round" stroke-linejoin="round">
        <path d="M80.8,44.7c0,0-2.6-15-11.3-23.7C62,13.8,49.5,11.4,45.3,11.4S28.6,13.8,21,21c-8.7,8.7-11.3,23.7-11.3,23.7 s1.9-1.6,5.3-0.9c0.8,2.9,2.1,5.6,3.7,8c-0.8,4-2,8-5.6,10.3c4.3,13.5,18.3,24.8,32.2,24.8c14,0,28-11.3,32.2-24.8 c-3.6-2.3-4.8-6.3-5.6-10.3c1.5-2.4,2.8-5.1,3.7-8C78.9,43.1,80.8,44.7,80.8,44.7z"/>
        <path d="M25,47.3c0,0,7.5,6.3,17.6,4.3"/>
        <path d="M56.7,51.6c0,0,8.3,3.8,14.1,0.9"/>
        <path d="M32.2,71.3c5.4,6.7,17,8.5,17,8.5s5.5-3.3,8.6-9.5"/>
        <circle cx="37.5" cy="47.5" r="2.5" fill="#000000" stroke="none"/>
        <circle cx="56.5" cy="47.5" r="2.5" fill="#000000" stroke="none"/>
        <path d="M41.5,61.5c1.5,2.5,5.6,4.3,10.6,3c3.8-1,6.5-3.8,7.5-6"/>
        <path d="M103.5,25.7c-3.3-1-7.8,0.6-9.4,5.1l-3,8.3c-3.8,1.1-8.1,3.7-10.7,8.6l4.5,7.9c2,3.6,5.7,6.6,11.6,8.2 l0.7,3.8c0.4,2.3,2.6,3.9,5,3.5l6.1-1.1c2.3-0.4,3.9-2.6,3.5-5l-0.6-3.4c3.2-1,5.6-3.8,5.9-7.2l0.3-3.4c0.3-3.4-2.1-6.4-5.4-7 l0-3.2c0-3.4-2.5-6.3-5.8-6.9l0.7-8C107.2,31.1,106.4,26.6,103.5,25.7z"/>
        <path d="M105.5,51.8l-10.4,2"/>
        <path d="M106.1,58.6l-10.8,2.2"/>
        <path d="M107.3,65.4l-11.1,1.8"/>
    </g>
  </g>
</svg>