<svg xmlns="http://www.w3.org/2000/svg" viewBox="0 0 24 24" fill="none" stroke="currentColor" stroke-width="2" stroke-linecap="round" stroke-linejoin="round">
  <path d="M10 5.172C10 3.782 8.423 2.679 6.5 3c-2.357.393-1.58 3.575-3.261 2.208v2.937C3.239 8.145 4 8.145 4 10c0 3 2.5 5 5 5a6.5 6.5 0 0 0 3.5-1" />
  <path d="M22 15a2.5 2.5 0 0 0-4-2c0-1.5-1.5-2-1.5-2" />
  <path d="M20 12l.5-1" />
  <path d="M18.5 14.5l-1 2" />
  <circle cx="6" cy="7" r="1" fill="currentColor" />
  <circle cx="10" cy="7" r="1" fill="currentColor" />
</svg>
