<svg xmlns="http://www.w3.org/2000/svg" viewBox="0 0 120 100" width="120" height="100">
  <g id="dog-thumbs-up">
    <path fill="#F4CF7D" d="M69.4,28c-3-4.4-8.7-7.5-16.3-7.5c-7.6,0-13.3,3.1-16.3,7.5c-6.4,0.5-15,5.1-17.5,14 c-2.4,8.5,1.4,16.3,5.6,20.3c6.1,10.9,16.3,18.4,28.2,18.4c11.9,0,22.1-7.5,28.2-18.4c4.2-4,8-11.8,5.6-20.3 C84.4,33.1,75.8,28.4,69.4,28z"/>
    <path fill="#FCE6B6" d="M53.1,48.6c-4.5,0-9.8,2.4-12,7.6c1.9,6.9,6.9,11.9,12,11.9c5.1,0,10.1-5,12-11.9 C62.9,51,57.6,48.6,53.1,48.6z"/>
    <path fill="#F78F8F" d="M53.1,68.1c-3.1,0-5.6,3.6-5.6,7.6s2.5,6.3,5.6,6.3c3.1,0,5.6-2.3,5.6-6.3S56.2,68.1,53.1,68.1z"/>
    <path fill="#231F20" d="M53.1,49.7c-3.3,0-6.1,1.6-6.1,3.6c0,2,2.7,4.8,6.1,4.8c3.3,0,6.1-2.8,6.1-4.8C59.2,51.3,56.4,49.7,53.1,49.7z"/>
    <path fill="#FFFFFF" d="M101.5,24.7c-3.3-1-7.8,0.6-9.4,5.1l-3,8.3c-3.8,1.1-8.1,3.7-10.7,8.6l4.5,7.9c2,3.6,5.7,6.6,11.6,8.2 l0.7,3.8c0.4,2.3,2.6,3.9,5,3.5l6.1-1.1c2.3-0.4,3.9-2.6,3.5-5l-0.6-3.4c3.2-1,5.6-3.8,5.9-7.2l0.3-3.4c0.3-3.4-2.1-6.4-5.4-7 l0-3.2c0-3.4-2.5-6.3-5.8-6.9l0.7-8C105.2,30.1,104.4,25.6,101.5,24.7z"/>

    <g fill="none" stroke="#000000" stroke-width="3" stroke-linecap="round" stroke-linejoin="round">
        <path d="M69.4,28c-3-4.4-8.7-7.5-16.3-7.5c-7.6,0-13.3,3.1-16.3,7.5c-6.4,0.5-15,5.1-17.5,14c-2.4,8.5,1.4,16.3,5.6,20.3"/>
        <path d="M86.9,42c-2.4-8.8-11.1-13.5-17.5-14"/>
        <path d="M81.3,62.3c4.2-4,8-11.8,5.6-20.3"/>
        <path d="M24.9,62.3c6.1,10.9,16.3,18.4,28.2,18.4c11.9,0,22.1-7.5,28.2-18.4"/>
        <path d="M53.1,48.6c-4.5,0-9.8,2.4-12,7.6c1.9,6.9,6.9,11.9,12,11.9c5.1,0,10.1-5,12-11.9C62.9,51,57.6,48.6,53.1,48.6z"/>
        <path d="M53.1,65c0,0,0,4.1,0,5.4"/>
        <path d="M53.1,68.1c-3.1,0-5.6,3.6-5.6,7.6s2.5,6.3,5.6,6.3c3.1,0,5.6-2.3,5.6-6.3S56.2,68.1,53.1,68.1z"/>
        <circle cx="42" cy="43" r="3" fill="#000000" stroke="none"/>
        <circle cx="64" cy="43" r="3" fill="#000000" stroke="none"/>
        <path d="M101.5,24.7c-3.3-1-7.8,0.6-9.4,5.1l-3,8.3c-3.8,1.1-8.1,3.7-10.7,8.6l4.5,7.9c2,3.6,5.7,6.6,11.6,8.2 l0.7,3.8c0.4,2.3,2.6,3.9,5,3.5l6.1-1.1c2.3-0.4,3.9-2.6,3.5-5l-0.6-3.4c3.2-1,5.6-3.8,5.9-7.2l0.3-3.4c0.3-3.4-2.1-6.4-5.4-7 l0-3.2c0-3.4-2.5-6.3-5.8-6.9l0.7-8C105.2,30.1,104.4,25.6,101.5,24.7z"/>
        <path d="M103.5,50.8l-10.4,2"/>
        <path d="M104.1,57.6l-10.8,2.2"/>
        <path d="M105.3,64.4l-11.1,1.8"/>
    </g>
  </g>
</svg>